<svg width="30" height="30" viewBox="0 0 30 30" fill="none" xmlns="http://www.w3.org/2000/svg">
<path d="M10.4805 3.09939C11.1369 2.90149 11.8413 2.93437 12.4763 3.19255C13.1114 3.45074 13.6389 3.91865 13.971 4.51839L14.082 4.74189L15.075 6.94839C15.3764 7.61812 15.4742 8.36166 15.3563 9.08655C15.2385 9.81143 14.9101 10.4857 14.412 11.0254L14.2125 11.2234L12.648 12.6829C12.366 12.9499 12.5775 13.9834 13.5975 15.7504C14.5155 17.3404 15.2625 18.0829 15.63 18.1234H15.6945L15.774 18.1084L18.849 17.1679C19.2623 17.0412 19.7033 17.0361 20.1194 17.1534C20.5354 17.2708 20.9089 17.5054 21.195 17.8294L21.3315 18.0019L23.367 20.8219C23.766 21.3746 23.9647 22.0467 23.9307 22.7276C23.8966 23.4084 23.6317 24.0573 23.1795 24.5674L22.9965 24.7564L22.1835 25.5274C21.4535 26.2188 20.5402 26.686 19.5524 26.8734C18.5645 27.0609 17.5436 26.9608 16.611 26.5849C13.7085 25.4149 11.0715 22.7419 8.67603 18.5929C6.27603 14.4334 5.27853 10.8079 5.72403 7.70289C5.85884 6.76429 6.24534 5.87973 6.84248 5.14314C7.43963 4.40655 8.22512 3.84544 9.11553 3.51939L9.40503 3.42339L10.4805 3.09939Z" fill="white"/>
</svg>
